PathFileType	4	(X/Y/Z)	C:/Users/beibeiliu/ov580/test_trc/User1\sequence.24_training_dense_left.trc
DataRate	CameraRate	NumFrames	NumMarkers	Units	OrigDataRate	OrigDataStartFrame	OrigNumFrames
120	120	8	19	mm	120	26	177
Frame#	Time	ThumbCMC			ThumbMCP			ThumbIP			ThumbTip			IndexMCP			IndexPIP			IndexTip			MiddleMCP			MiddlePIP			MiddleTip			RingMCP			RingPIP			RingTip			PinkyMCP			PinkyPIP			PinkyTip			BackHand1			BackHand2			BackHand3	
		X0	Y0	Z0	X1	Y1	Z1	X2	Y2	Z2	X3	Y3	Z3	X4	Y4	Z4	X5	Y5	Z5	X6	Y6	Z6	X7	Y7	Z7	X8	Y8	Z8	X9	Y9	Z9	X10	Y10	Z10	X11	Y11	Z11	X12	Y12	Z12	X13	Y13	Z13	X14	Y14	Z14	X15	Y15	Z15	X16	Y16	Z16	X17	Y17	Z17	X18	Y18	Z18	
25	0.208333	-175.555	59.5717	50.0993	-150.607	62.5292	17.3466	-152.641	54.063	-15.0383	-157.303	34.3099	-35.3955	-187.435	73.6346	-38.778	-183.362	73.3529	-62.956	-182.262	70.1788	-88.2653	-181.15	47.6816	-47.4464	-153.556	37.2542	-61.7968	-124.048	16.3764	-57.8102	-176.401	15.8519	-30.0334	-148.427	6.0696	-9.32112	-154.756	9.76206	24.1581	-186.157	1.63571	-20.4775	-162.794	-1.11007	-3.48205	-166.907	14.0028	23.9838	-227.094	31.7744	10.8784	-233.303	33.4527	42.7582	-214.098	60.9349	33.2511	
26	0.216667	-174.107	61.4066	49.0796	-153.028	60.5909	16.0427	-157.186	51.0167	-12.2227	-162.477	32.2208	-30.6674	-185.874	74.8911	-33.8227	-185.814	68.687	-58.8057	-184.013	65.4308	-83.3163	-183.244	42.8464	-46.5688	-156.146	35.984	-59.33	-126.308	17.7991	-57.4138	-175.259	18.1581	-29.4969	-148.214	7.69511	-10.0242	-152.49	12.5267	24.0544	-190.018	-2.39211	-19.7669	-163.86	-0.265453	-3.57072	-164.498	12.3671	23.982	-225.927	29.5098	7.75697	-236.284	27.3199	46.6464	-213.33	60.6013	33.3278	
27	0.225	-177.008	56.1412	49.8455	-151.899	58.2829	18.8495	-156.493	50.7052	-15.1432	-160.956	30.5897	-35.5651	-188.595	68.4136	-32.5688	-184.79	69.5218	-60.5151	-186.171	60.676	-84.2391	-181.708	44.0924	-46.3144	-156.985	29.3225	-60.6692	-122.337	13.8355	-53.6061	-179.43	12.9048	-29.3895	-150.132	3.35371	-9.04718	-153.382	6.20102	20.8539	-191.42	-6.2277	-19.9648	-166.158	-4.51784	-7.04736	-167.354	9.70041	23.0627	-224.406	30.7432	11.323	-234.768	24.7613	46.7412	-214.4	57.5726	31.133	
28	0.233333	-175.36	58.6353	48.8573	-155.302	55.1036	20.8221	-156.527	48.7197	-10.7431	-160.951	31.0168	-31.0796	-188.545	68.2579	-35.302	-186.163	64.9174	-58.2756	-186.745	59.3659	-88.9604	-184.757	44.49	-43.028	-155.389	29.9633	-60.3906	-129.526	11.2175	-53.4899	-177.33	12.9015	-28.6837	-149.513	4.54692	-10.4152	-153.182	7.82748	20.4154	-191.66	-3.32069	-20.0805	-165.534	-7.1331	-3.3689	-167.732	8.37872	25.164	-227.699	27.9668	7.57781	-235.492	26.7416	48.3779	-216.34	57.7556	34.1781	
29	0.241667	-176.154	56.6485	52.1024	-158.099	56.2085	19.4486	-153.302	53.6981	-10.9607	-159.307	32.6809	-33.8147	-190.538	67.2987	-32.9323	-186.649	66.9858	-58.7612	-184.419	63.188	-87.8869	-186.667	40.7667	-46.0954	-158.275	29.5494	-60.1829	-125.216	11.7688	-53.0417	-179.069	13.9994	-28.4334	-152.008	4.00287	-11.0062	-155.872	5.0098	20.9661	-191.609	-1.64556	-19.2039	-165.084	-5.74842	-3.46998	-168.931	10.1397	24.1456	-226.274	31.1257	12.7115	-233.814	27.2331	45.9333	-216.06	58.9169	35.0784	
30	0.25	-181.228	56.5397	47.7762	-158.554	60.7634	17.2647	-158.048	52.8677	-8.53105	-162.982	34.8722	-33.1641	-190.918	71.3451	-37.8554	-189.44	64.9308	-57.8906	-187.91	59.7018	-89.4137	-189.248	41.0256	-43.9862	-160.216	29.344	-61.2544	-130.553	13.0838	-56.7648	-178.49	13.2137	-30.1457	-152.398	2.348	-9.71034	-155.876	11.3619	21.4968	-189.952	-4.34486	-19.5141	-166.36	-6.89334	-4.8733	-169.967	10.655	27.3734	-230.608	26.7444	7.93036	-236.717	23.9868	45.8744	-219.545	56.7996	32.6159	
31	0.258333	-181.961	59.1196	49.486	-157.938	62.8564	17.317	-158.975	56.0789	-8.9738	-159.178	39.223	-36.3249	-194.26	68.5133	-38.6127	-189.567	68.0607	-59.717	-188.124	62.7164	-87.7519	-186.699	42.9419	-47.3772	-159.478	32.9941	-60.9367	-127.092	19.1757	-59.9433	-181.836	12.8005	-28.6629	-153.818	6.95269	-13.4905	-156.849	12.0989	21.2014	-192.812	-5.2328	-18.7868	-164.567	-6.44107	-2.28247	-168.053	9.12943	24.0722	-230.646	27.1382	9.3711	-235.554	25.0698	47.2122	-217.917	60.1327	32.1171	
32	0.266667	-183.938	62.0583	46.6227	-161.554	64.7274	17.2673	-158.018	58.9526	-12.6923	-161.953	38.6025	-34.2322	-196.509	70.1624	-35.8188	-192.513	64.3	-62.2638	-192.134	57.4692	-88.4153	-190.281	40.557	-45.2143	-162.902	32.9836	-61.9058	-129.164	22.1955	-61.2979	-180.418	16.0368	-29.3163	-152.637	8.06942	-12.6241	-157.155	13.7981	20.5592	-189.003	-6.5468	-17.84	-163.928	-0.60527	-2.27442	-171.742	13.6567	26.773	-230.682	24.2745	8.06394	-235.326	23.8186	46.8761	-221.852	53.3248	31.2306	
